<svg version="1.2" xmlns="http://www.w3.org/2000/svg" viewBox="0 0 1340 1546" width="1340" height="1546">
	<title>udr_2021_esgreport-1-pdf-svg</title>
	<defs>
		<clipPath clipPathUnits="userSpaceOnUse" id="cp1">
			<path d="m-7297.09-5019.37h9758.31v7538.29h-9758.31z"/>
		</clipPath>
		<linearGradient id="g1" x1="30.9" y1="772.9" x2="1644.3" y2="772.9" gradientUnits="userSpaceOnUse">
			<stop offset="0" stop-color="#247c3a"/>
			<stop offset=".5" stop-color="#90cb49"/>
			<stop offset="1" stop-color="#f3f7e0"/>
		</linearGradient>
		<linearGradient id="g2" x1="2.5" y1="772.3" x2="1131.8" y2="772.3" gradientUnits="userSpaceOnUse">
			<stop offset="0" stop-color="#247c3a"/>
			<stop offset="1" stop-color="#86c344"/>
		</linearGradient>
	</defs>
	<style>
		.s0 { fill: url(#g1) } 
		.s1 { fill: url(#g2) } 
		.s2 { fill: #ffffff } 
	</style>
	<g id="Clip-Path: Page 1" clip-path="url(#cp1)">
		<g id="Page 1">
			<path id="Path 15" class="s0" d="m1332 0.6l-1329.5 207.6v1128.9l1337.5 208.7v-1545.2z"/>
			<path id="Path 16" class="s1" d="m0.7 1338.3h1131.7v-1132h-1131.7z"/>
			<path id="Path 18" class="s2" d="m1052.3 947.2c-31.4-2.5-53.6-40-76.4-77-19.7-31.4-43.1-70.2-72.1-90.5 58.6-19.7 71.5-58.5 71.5-88.1 0-46.2-39.4-95.4-125.1-95.4h-155.2v8.6h3.7c24.6 0 36.3 5.5 36.3 51.7v64.7c-8-25.3-21.5-48.7-40-67.8-36.4-37.5-89.3-57.2-152.8-57.2h-166.3v8.6h3.7c24 0 36.3 8.6 36.3 53v247.5c-25.9 24.7-70.2 37-109.6 37-54.3 0-99.2-39.4-99.2-95.5v-250.6h-93.7v8.6h3.7c25.3 0 36.4 8 36.4 53v181.6c0 57.3 45 124.4 136.1 124.4 45 0 93.7-17.2 126.3-52.9v44.3h53.6v-287c0-55.4 13.6-61.6 41.9-61.6h22.2c110.3 0 150.3 95.5 150.3 175.6 0 88-45.6 155.2-120.1 163.8 0 0-13.6 1.8-23.4 2.4v6.2c3.7 0 7.4 0.6 10.4 0.6 6.8-0.6 13-0.6 13-0.6 99.8-4.9 151.5-54.8 171.2-113.9v114.5h53.6v-348.6h39.5c53.6 0 89.3 40.7 89.3 86.3 0 41.2-23.4 85.6-85.6 85.6h-4.4v8c37.6 4.9 62.3 47.4 91.8 92.4 16.7 24 29 48 51.8 75.1l1.2 1.2h83.2v-8z"/>
			<path id="Path 19" fill-rule="evenodd" class="s2" d="m1041.8 683.6c-24.2 0-43.7-19.5-43.7-43.7 0-24.2 19.5-43.7 43.7-43.7 24.2 0 43.8 19.5 43.8 43.7 0 24.2-19.6 43.7-43.8 43.7zm35.8-44c0-20.3-16.1-36.7-36.1-36.7-19.9 0-36 16.4-36 36.7 0 20.2 16.1 36.6 36 36.6 20 0 36.1-16.4 36.1-36.6zm-53-25.6h19.7c11.1 0 17.2 5 17.2 15.4 0 9.3-6.1 13-13.5 14.2l14.2 22.2h-7.4l-14.2-21.6h-8.6v21.6h-7.4zm16 22.1c6.8 0 12.9 0 12.9-8 0-6.1-5.5-7.4-11.1-7.4h-10.4v15.4z"/>
		</g>
	</g>
</svg>